<svg width="83" height="81" viewBox="0 0 83 81" fill="none" xmlns="http://www.w3.org/2000/svg">
<g filter="url(#filter0_f_331_58)">
<path d="M31.794 29.6657L40.5559 6.63446L50.413 29.6657L75.6035 41.1813L50.413 50.6032L40.5559 73.6345L31.794 50.6032L6.60352 41.1813L31.794 29.6657Z" fill="#FFFFAA"/>
<path d="M31.794 29.6657L40.5559 6.63446L50.413 29.6657L75.6035 41.1813L50.413 50.6032L40.5559 73.6345L31.794 50.6032L6.60352 41.1813L31.794 29.6657Z" stroke="#FFFFD7"/>
</g>
<path d="M27.3141 33.8454L27.4948 31.1159C27.6315 30.4681 27.7178 30.1263 27.7536 30.0905C27.8805 30.0873 28.0498 30.0856 28.2614 30.0856C28.473 30.0824 28.8603 30.0824 29.4235 30.0856C29.9899 30.0889 30.5026 30.097 30.9616 30.11C31.4206 30.1198 31.873 30.1426 32.319 30.1784C32.765 30.211 33.0628 30.2533 33.2126 30.3054L33.5885 30.4763C33.595 30.5088 33.6048 30.6683 33.6178 30.9548C33.6341 31.238 33.6536 31.6677 33.6764 32.2438C33.7025 32.8168 33.7253 33.305 33.7448 33.7087C33.7578 34.1123 33.7627 34.6169 33.7594 35.2224C33.7562 35.8246 33.7497 36.4007 33.7399 36.9509L33.7204 37.7809H32.4801C32.4769 37.7809 32.4704 37.7793 32.4606 37.7761C32.4541 37.7728 32.4395 37.7679 32.4167 37.7614C32.3939 37.7549 32.3727 37.7484 32.3532 37.7419C32.3369 37.7354 32.319 37.7289 32.2995 37.7224C32.2799 37.7158 32.2653 37.7126 32.2555 37.7126L32.2409 37.7077C32.2441 37.711 32.2506 37.4929 32.2604 37.0534C32.2734 36.6107 32.2848 36.168 32.2946 35.7253L32.3092 35.0612C32.2832 34.4037 32.2604 34.0488 32.2409 33.9968L31.2155 33.9577L27.3141 33.8454ZM27.8512 37.527L28.945 37.6833L29.8044 37.737L30.0094 37.6345L30.1217 34.944C30.0371 34.9408 29.9264 34.9359 29.7897 34.9294C29.6562 34.9229 29.4447 34.9131 29.1549 34.9001C28.8685 34.8838 28.6292 34.8724 28.4372 34.8659C28.2451 34.8561 28.1491 34.8529 28.1491 34.8561L28.1247 34.8903C28.1084 34.9099 28.0856 34.944 28.0563 34.9929C28.0303 35.0417 28.0059 35.097 27.9831 35.1589L27.8512 37.527ZM34.9704 33.6501C34.9671 33.4971 34.9655 33.2953 34.9655 33.0446C34.9687 32.794 34.9899 32.3659 35.029 31.7604C35.0713 31.1517 35.1331 30.6439 35.2145 30.237C35.3154 30.224 35.4538 30.2093 35.6296 30.1931C35.8086 30.1735 36.1504 30.1491 36.6549 30.1198C37.1595 30.0905 37.6413 30.0759 38.1003 30.0759C38.5625 30.0759 39.0719 30.1035 39.6286 30.1589C40.1852 30.2142 40.6589 30.3037 41.0495 30.4274C41.0592 30.4763 41.0771 30.6553 41.1032 30.9645C41.1292 31.2705 41.1536 31.6937 41.1764 32.2341C41.1992 32.7712 41.209 33.279 41.2057 33.7575L41.1813 37.6345L40.0387 37.7321C40.0355 37.7289 40.029 37.724 40.0192 37.7175C40.0127 37.711 39.998 37.6996 39.9753 37.6833C39.9525 37.6703 39.9313 37.6572 39.9118 37.6442C39.8955 37.6312 39.8776 37.6182 39.8581 37.6052C39.8385 37.5889 39.8239 37.5775 39.8141 37.571L39.7995 37.5612C39.8027 37.5645 39.806 37.3545 39.8092 36.9313C39.8125 36.5049 39.8141 36.0785 39.8141 35.652L39.819 35.0124L39.7506 33.8991C39.6921 33.8731 39.5732 33.8454 39.3942 33.8161C39.2152 33.7868 39.0524 33.764 38.9059 33.7477L38.6813 33.7282L34.9704 33.6501ZM42.2458 33.4255C42.249 33.419 42.2686 33.3002 42.3044 33.069C42.3434 32.8347 42.3906 32.5791 42.446 32.3024C42.5046 32.0257 42.6055 31.653 42.7487 31.1843C42.8952 30.7155 43.0677 30.2435 43.2663 29.7682L43.4372 29.7878C43.6292 29.8366 43.8473 29.9017 44.0915 29.9831C44.3356 30.0645 44.6383 30.1784 44.9997 30.3249C45.3643 30.4681 45.7712 30.6585 46.2204 30.8962C46.6696 31.1306 47.1139 31.391 47.5534 31.6774L46.6305 34.6462L46.0055 34.402L45.5758 34.1579L44.9801 35.7936C45.0518 36.2266 45.1673 36.8239 45.3268 37.5856L44.1647 37.7077L43.9645 37.5856C43.9385 37.5075 43.9043 37.3692 43.862 37.1706C43.8229 36.9688 43.7904 36.7865 43.7643 36.6237L43.7253 36.3796L44.2282 34.4411L42.2458 33.4255ZM48.7643 30.779L48.8034 30.2224L49.2087 30.1198C49.2184 30.1263 49.8092 30.1231 50.9811 30.11C52.153 30.0938 52.7406 30.0873 52.7438 30.0905L52.9587 30.1149C53.1051 30.1345 53.2825 30.1589 53.4909 30.1882C53.6992 30.2142 53.9108 30.2435 54.1256 30.2761C54.3405 30.3054 54.5325 30.3395 54.7018 30.3786C54.8711 30.4144 54.9753 30.4486 55.0143 30.4811C55.0762 30.53 55.1364 30.7416 55.195 31.1159C55.2536 31.4903 55.2959 31.8337 55.3219 32.1462C55.348 32.4587 55.361 32.6377 55.361 32.6833L55.3464 33.0446C55.3366 33.2822 55.3252 33.5801 55.3122 33.9382C55.2992 34.293 55.2845 34.6804 55.2682 35.1003C55.2552 35.5169 55.2422 35.9059 55.2292 36.2673C55.2194 36.6286 55.2113 36.9346 55.2048 37.1852C55.2015 37.4359 55.2015 37.5694 55.2048 37.5856L54.9606 37.6149L54.0964 37.5368L54.0622 36.028C54.0622 35.1817 54.0671 34.7406 54.0768 34.7048C54.0833 34.6755 54.0768 34.6299 54.0573 34.5681C54.0378 34.5062 54.0133 34.4606 53.984 34.4313C53.9645 34.4118 53.8018 34.3923 53.4958 34.3727C53.1898 34.3532 52.8887 34.3386 52.5924 34.3288L52.1481 34.3141C52.0765 34.3044 51.8763 34.293 51.5475 34.28C51.222 34.2637 51.0104 34.2653 50.9128 34.2849C50.8867 34.2979 50.8574 34.3369 50.8249 34.402C50.7956 34.4639 50.7712 34.5225 50.7516 34.5778L50.7272 34.6657C50.7337 36.7425 50.7419 37.7809 50.7516 37.7809C50.7549 37.7809 50.6979 37.7842 50.5807 37.7907C50.4635 37.7972 50.3203 37.8054 50.151 37.8151C49.9818 37.8249 49.8125 37.8347 49.6432 37.8444C49.4772 37.8542 49.3356 37.8623 49.2184 37.8688C49.1012 37.8753 49.0443 37.8786 49.0475 37.8786C49.0573 37.8786 48.9808 37.8412 48.818 37.7663L48.7643 30.779ZM19.1794 48.8454L19.36 46.1159C19.4967 45.4681 19.583 45.1263 19.6188 45.0905C19.7458 45.0873 19.915 45.0856 20.1266 45.0856C20.3382 45.0824 20.7256 45.0824 21.2887 45.0856C21.8551 45.0889 22.3678 45.097 22.8268 45.11C23.2858 45.1198 23.7383 45.1426 24.1842 45.1784C24.6302 45.211 24.9281 45.2533 25.0778 45.3054L25.4538 45.4763C25.4603 45.5088 25.47 45.6683 25.4831 45.9548C25.4993 46.238 25.5189 46.6677 25.5417 47.2438C25.5677 47.8168 25.5905 48.305 25.61 48.7087C25.623 49.1123 25.6279 49.6169 25.6247 50.2224C25.6214 50.8246 25.6149 51.4007 25.6051 51.9509L25.5856 52.7809H24.3454C24.3421 52.7809 24.3356 52.7793 24.3258 52.7761C24.3193 52.7728 24.3047 52.7679 24.2819 52.7614C24.2591 52.7549 24.238 52.7484 24.2184 52.7419C24.2021 52.7354 24.1842 52.7289 24.1647 52.7224C24.1452 52.7158 24.1305 52.7126 24.1208 52.7126L24.1061 52.7077C24.1094 52.711 24.1159 52.4929 24.1256 52.0534C24.1387 51.6107 24.1501 51.168 24.1598 50.7253L24.1745 50.0612C24.1484 49.4037 24.1256 49.0488 24.1061 48.9968L23.0807 48.9577L19.1794 48.8454ZM19.7165 52.527L20.8102 52.6833L21.6696 52.737L21.8747 52.6345L21.987 49.944C21.9023 49.9408 21.7917 49.9359 21.6549 49.9294C21.5215 49.9229 21.3099 49.9131 21.0202 49.9001C20.7337 49.8838 20.4945 49.8724 20.3024 49.8659C20.1103 49.8561 20.0143 49.8529 20.0143 49.8561L19.9899 49.8903C19.9736 49.9099 19.9508 49.944 19.9215 49.9929C19.8955 50.0417 19.8711 50.097 19.8483 50.1589L19.7165 52.527ZM27.0114 48.9382C26.943 48.3327 26.9023 47.7126 26.8893 47.0778C26.8763 46.4398 26.8812 45.9548 26.904 45.6227L26.9333 45.1247C27.1774 45.1149 27.5029 45.1052 27.9098 45.0954C28.32 45.0856 29.0475 45.0938 30.0924 45.1198C31.1406 45.1426 32.0586 45.1979 32.8464 45.2858L32.7975 47.4733L32.6999 48.4157L31.4255 48.5427L31.4108 49.0212L31.4694 52.7321C30.8021 52.6931 30.4635 52.6686 30.4538 52.6589L30.2536 52.5368L30.2243 49.0602L27.5778 48.9919L27.0114 48.9382ZM33.6813 45.0954C34.0589 45.0433 34.4447 45.0173 34.8385 45.0173C35.2324 45.0173 35.5303 45.0303 35.7321 45.0563L36.0397 45.0954C36.0853 46.6123 36.1081 47.3773 36.1081 47.3903C36.1081 47.3968 36.1699 47.239 36.2936 46.9167C36.4173 46.5912 36.541 46.264 36.6647 45.9352L36.8503 45.447C36.8535 45.4372 36.8584 45.4242 36.8649 45.4079C36.8747 45.3916 36.8909 45.3607 36.9137 45.3151C36.9398 45.2696 36.9658 45.2305 36.9919 45.1979C37.0212 45.1621 37.057 45.128 37.0993 45.0954C37.1449 45.0628 37.1921 45.0433 37.2409 45.0368C37.3906 45.027 37.6852 45.0254 38.1247 45.0319C38.5641 45.0352 39.0215 45.0433 39.4967 45.0563L40.2096 45.0759C40.2715 45.0824 40.3545 45.0921 40.4587 45.1052C40.5661 45.1182 40.7565 45.1459 41.0299 45.1882C41.3034 45.2305 41.5475 45.2728 41.7624 45.3151C41.9805 45.3542 42.1872 45.4046 42.3825 45.4665C42.5778 45.5283 42.6934 45.5869 42.7292 45.6423L42.612 52.5856C42.5892 52.6019 42.5583 52.6214 42.5192 52.6442C42.4834 52.667 42.4264 52.6963 42.3483 52.7321C42.2734 52.7712 42.2181 52.7875 42.1823 52.7809C42.1465 52.7744 41.917 52.7679 41.4938 52.7614C41.0706 52.7549 40.6572 52.75 40.2536 52.7468L39.6432 52.7419L39.5651 52.2341L39.6628 50.3102L40.7956 50.4274L41.1032 50.2712V49.4509V48.9528L40.7174 48.6696C40.6947 48.6533 40.6556 48.6338 40.6003 48.611C40.5482 48.585 40.4049 48.5508 40.1706 48.5085C39.9362 48.4662 39.6628 48.4418 39.3503 48.4352C38.1133 48.4125 37.4427 48.6468 37.3385 49.1384C37.306 49.3825 37.293 49.7487 37.2995 50.237C37.3092 50.7253 37.3271 51.2152 37.3532 51.7067L37.3971 52.4391L37.2165 52.5856L36.1276 52.488C36.0788 52.488 36.0365 52.3789 36.0006 52.1608C35.9648 51.9395 35.9404 51.6774 35.9274 51.3747C35.9144 51.0687 35.9046 50.8246 35.8981 50.6423C35.8949 50.46 35.8932 50.3363 35.8932 50.2712V48.3376L35.7956 48.0446L35.0631 48.0202L33.862 47.9567L33.6813 45.0954ZM44.0329 48.7331C44.0036 48.3718 43.9889 47.8981 43.9889 47.3122C43.9889 46.723 43.9971 46.225 44.0133 45.8181L44.0329 45.2126L44.277 45.1393C44.3454 45.1426 44.5244 45.141 44.8141 45.1345C45.1071 45.128 45.4912 45.1377 45.9665 45.1638C46.4417 45.1865 46.7949 45.224 47.026 45.2761C47.0456 45.2793 47.0439 45.8913 47.0212 47.112C46.9984 48.3294 46.9723 49.5469 46.943 50.7643L46.8942 52.5905L46.0446 52.6833L45.8639 52.571C45.7891 50.1068 45.7516 48.8666 45.7516 48.8503L45.6979 48.777L44.0329 48.7331ZM48.4421 48.0641C48.3802 47.4912 48.3477 46.9492 48.3444 46.4382C48.3411 45.9238 48.3477 45.4453 48.3639 45.0026C48.3802 44.5599 48.3965 44.1986 48.4128 43.9186C48.4323 43.6387 48.4421 43.4955 48.4421 43.489C48.4941 43.4792 48.5658 43.4678 48.6569 43.4548C48.7513 43.4418 48.9385 43.4222 49.2184 43.3962C49.4984 43.3701 49.7751 43.3539 50.0485 43.3474C50.3219 43.3376 50.6426 43.3441 51.0104 43.3669C51.3815 43.3897 51.7249 43.4336 52.0407 43.4987C52.0049 44.2181 51.9528 45.0368 51.8844 45.9548C52.835 45.9743 53.9385 46.002 55.195 46.0378C55.2015 46.0899 55.2096 46.1615 55.2194 46.2526C55.2292 46.3438 55.2324 46.5342 55.2292 46.8239C55.2292 47.1136 55.2129 47.4066 55.1803 47.7028C55.1478 47.9958 55.0778 48.3555 54.9704 48.7819C54.8662 49.2084 54.7279 49.6218 54.5553 50.0222C54.3828 50.4225 54.1419 50.8539 53.8327 51.3161C53.5267 51.7783 53.1702 52.2097 52.7633 52.61L51.9186 52.1804L51.8063 51.9802C52.0798 51.7067 52.319 51.4333 52.5241 51.1599C52.7324 50.8832 52.887 50.6472 52.988 50.4518C53.0889 50.2565 53.1702 50.0807 53.2321 49.9245C53.2939 49.765 53.3298 49.6462 53.3395 49.5681L53.359 49.4509L48.7106 49.5681C48.5934 49.1351 48.5039 48.6338 48.4421 48.0641ZM56.6549 48.0641C56.5931 47.4912 56.5605 46.9492 56.5573 46.4382C56.554 45.9238 56.5605 45.4453 56.5768 45.0026C56.5931 44.5599 56.6094 44.1986 56.6256 43.9186C56.6452 43.6387 56.6549 43.4955 56.6549 43.489C56.707 43.4792 56.7786 43.4678 56.8698 43.4548C56.9642 43.4418 57.1514 43.4222 57.4313 43.3962C57.7113 43.3701 57.988 43.3539 58.2614 43.3474C58.5348 43.3376 58.8555 43.3441 59.2233 43.3669C59.5944 43.3897 59.9378 43.4336 60.2536 43.4987C60.2178 44.2181 60.1657 45.0368 60.0973 45.9548C61.0478 45.9743 62.1514 46.002 63.4079 46.0378C63.4144 46.0899 63.4225 46.1615 63.4323 46.2526C63.4421 46.3438 63.4453 46.5342 63.4421 46.8239C63.4421 47.1136 63.4258 47.4066 63.3932 47.7028C63.3607 47.9958 63.2907 48.3555 63.1833 48.7819C63.0791 49.2084 62.9408 49.6218 62.7682 50.0222C62.5957 50.4225 62.3548 50.8539 62.0456 51.3161C61.7396 51.7783 61.3831 52.2097 60.9762 52.61L60.1315 52.1804L60.0192 51.9802C60.2926 51.7067 60.5319 51.4333 60.737 51.1599C60.9453 50.8832 61.0999 50.6472 61.2008 50.4518C61.3018 50.2565 61.3831 50.0807 61.445 49.9245C61.5068 49.765 61.5426 49.6462 61.5524 49.5681L61.5719 49.4509L56.9235 49.5681C56.8063 49.1351 56.7168 48.6338 56.6549 48.0641Z" fill="#C4999F"/>
<defs>
<filter id="filter0_f_331_58" x="0.000781059" y="-1.23978e-05" width="82.2055" height="80.2689" filterUnits="userSpaceOnUse" color-interpolation-filters="sRGB">
<feFlood flood-opacity="0" result="BackgroundImageFix"/>
<feBlend mode="normal" in="SourceGraphic" in2="BackgroundImageFix" result="shape"/>
<feGaussianBlur stdDeviation="2.65" result="effect1_foregroundBlur_331_58"/>
</filter>
</defs>
</svg>
