<svg width="307" height="393" viewBox="0 0 307 393" fill="none" xmlns="http://www.w3.org/2000/svg">
<rect x="93.3" width="139" height="74" rx="20" fill="#477FA3"/>
<g filter="url(#filter0_f_165_37)">
<path d="M141.506 131.381C151.897 123.527 158.68 120.115 170.859 115.158C179.512 111.635 193.744 108 193.744 108C193.744 108 190.09 115.263 187.774 119.929C184.637 126.252 183.504 130.111 179.814 136.153C176.709 141.238 172.067 142.782 170.859 148.559C169.325 155.897 173.075 160.416 177.327 166.692C180.546 171.444 183.743 173.046 187.774 177.189C194.721 184.329 198.292 188.614 205.187 195.799C211.33 202.201 216.202 204.704 221.107 212.023C226.199 219.62 228.368 224.611 230.062 233.495C231.601 241.561 231.821 246.467 230.062 254.491C227.266 267.251 212.152 283.121 212.152 283.121C212.152 283.121 194.196 300.619 179.814 307.457C167.308 313.402 145.486 317 145.486 317C145.486 317 108.129 308.344 93.2481 291.71C81.8019 278.915 74.7165 268.953 75.3378 252.105C75.6127 244.651 77.7256 240.68 79.8154 233.495C84.5276 217.296 88.8302 208.659 96.2331 193.413C103.316 178.826 106.734 170.142 116.631 157.148C125.066 146.075 130.276 139.87 141.506 131.381Z" fill="#C38D94"/>
</g>
<path d="M157.767 306.384C157.645 305.895 158.205 306.191 158.468 305.804C174.361 282.532 175.589 261.528 161.606 237.15C158.507 231.75 154.649 226.678 151.493 221.303C142.929 206.719 134.668 183.955 135.838 167.425C137.124 149.256 156.797 125.011 176.753 120.192C180.038 119.4 183.471 119.304 186.801 118.723C186.062 119.703 185.13 120.797 184.249 121.674C173.866 132.013 166.048 140.465 164.029 155.018C159.979 184.209 175.762 196.791 188.389 220.638C194.805 232.748 198.097 250.53 196.426 263.856C194.002 283.221 176.058 297.956 157.767 306.384Z" fill="#FDFDFD"/>
<path d="M156.302 305.072L155.26 300.598C154.174 293.857 154.341 287.671 151.139 281.335C145.289 269.763 133.15 261.189 124.966 250.711C112.828 235.179 104.682 209.41 113.4 191.229C117.547 182.583 125.525 175.642 131.292 167.927C131.652 168.042 131.492 168.755 131.466 169.07C131.119 173.435 129.846 177.794 129.646 182.202C128.431 209.077 154.669 233.727 162.969 259.212C168.009 274.684 164.923 291.136 156.295 305.066L156.302 305.072Z" fill="#2DA6DC"/>
<path d="M162.152 307.37L182.564 295.362C193.719 287.641 208.532 273.493 209.618 260.282C210.235 252.743 209.393 244.242 207.548 236.89C200.013 206.858 156.154 181.368 175.287 147.745C175.46 147.436 175.48 146.965 176.02 146.929C178.9 158.821 183.818 170.847 192.105 180.545C199.659 189.385 209.059 197.033 216.909 205.504C229.806 219.422 233.708 241.237 228.057 258.481C222.753 274.654 203.33 291.251 187.219 299.22C179.337 303.119 170.999 305.798 162.146 307.364L162.152 307.37Z" fill="#0D5B9F"/>
<path d="M153.749 307.376C136.018 302.442 119.726 294.57 107.749 281.613C94.6658 267.459 90.5126 252.332 94.7108 234.151C96.2152 227.633 99.0505 222.095 103.544 216.822C103.808 218.806 103.808 220.904 103.737 222.905C103.197 238.359 106.476 250.427 118.318 261.945C124.973 268.414 132.938 270.537 138.712 277.744C145.739 286.511 150.483 297.025 153.749 307.376Z" fill="#0D5B9F"/>
<path d="M106.141 143.844L108.173 138L110.459 143.844L116.3 146.766L110.459 149.156L108.173 155L106.141 149.156L100.3 146.766L106.141 143.844Z" fill="#FFFFD7" stroke="#FFFFD7"/>
<path d="M99.681 159.125L101.205 155L102.919 159.125L107.3 161.188L102.919 162.875L101.205 167L99.681 162.875L95.3 161.188L99.681 159.125Z" fill="#FFFFD7" stroke="#FFFFD7"/>
<path d="M245.141 255.844L247.173 250L249.459 255.844L255.3 258.766L249.459 261.156L247.173 267L245.141 261.156L239.3 258.766L245.141 255.844Z" fill="#FFFFD7" stroke="#FFFFD7"/>
<path d="M238.681 271.125L240.205 267L241.919 271.125L246.3 273.188L241.919 274.875L240.205 279L238.681 274.875L234.3 273.188L238.681 271.125Z" fill="#FFFFD7" stroke="#FFFFD7"/>
<defs>
<filter id="filter0_f_165_37" x="4.57764e-05" y="32.7" width="306.6" height="359.6" filterUnits="userSpaceOnUse" color-interpolation-filters="sRGB">
<feFlood flood-opacity="0" result="BackgroundImageFix"/>
<feBlend mode="normal" in="SourceGraphic" in2="BackgroundImageFix" result="shape"/>
<feGaussianBlur stdDeviation="37.65" result="effect1_foregroundBlur_165_37"/>
</filter>
</defs>
</svg>
