<svg width="307" height="360" viewBox="0 0 307 360" fill="none" xmlns="http://www.w3.org/2000/svg">
<g filter="url(#filter0_f_163_4)">
<path d="M141.506 98.6813C151.897 90.827 158.68 87.4151 170.859 82.4575C179.512 78.935 193.744 75.3 193.744 75.3C193.744 75.3 190.09 82.5633 187.774 87.2292C184.636 93.5517 183.504 97.4108 179.814 103.453C176.709 108.538 172.067 110.082 170.859 115.859C169.324 123.197 173.075 127.716 177.327 133.992C180.546 138.744 183.743 140.346 187.774 144.489C194.72 151.629 198.292 155.914 205.187 163.099C211.33 169.501 216.202 172.004 221.107 179.323C226.199 186.92 228.368 191.911 230.062 200.795C231.601 208.861 231.821 213.767 230.062 221.791C227.266 234.551 212.152 250.421 212.152 250.421C212.152 250.421 194.196 267.919 179.814 274.757C167.308 280.702 145.486 284.3 145.486 284.3C145.486 284.3 108.129 275.644 93.248 259.01C81.8018 246.215 74.7165 236.253 75.3378 219.405C75.6126 211.951 77.7255 207.98 79.8153 200.795C84.5275 184.596 88.8302 175.959 96.233 160.713C103.316 146.126 106.733 137.442 116.631 124.448C125.066 113.375 130.276 107.17 141.506 98.6813Z" fill="#C38D94"/>
</g>
<path d="M157.767 273.684C157.645 273.195 158.205 273.491 158.468 273.104C174.361 249.832 175.589 228.828 161.606 204.45C158.507 199.05 154.649 193.978 151.493 188.603C142.929 174.019 134.668 151.255 135.838 134.725C137.123 116.556 156.797 92.3112 176.752 87.4924C180.038 86.7003 183.471 86.6036 186.801 86.0231C186.062 87.0026 185.13 88.097 184.249 88.9737C173.866 99.3126 166.048 107.765 164.029 122.318C159.979 151.509 175.762 164.091 188.389 187.937C194.805 200.048 198.097 217.83 196.426 231.156C194.002 250.521 176.058 265.256 157.767 273.684Z" fill="#FDFDFD"/>
<path d="M156.302 272.372L155.26 267.898C154.174 261.157 154.341 254.971 151.139 248.635C145.289 237.063 133.15 228.489 124.966 218.011C112.828 202.479 104.682 176.71 113.4 158.529C117.547 149.883 125.525 142.942 131.292 135.227C131.652 135.342 131.492 136.055 131.466 136.37C131.119 140.735 129.846 145.094 129.646 149.502C128.431 176.377 154.669 201.027 162.969 226.512C168.009 241.984 164.923 258.436 156.295 272.366L156.302 272.372Z" fill="#2DA6DC"/>
<path d="M162.152 274.67L182.564 262.662C193.719 254.941 208.532 240.793 209.618 227.582C210.235 220.043 209.393 211.542 207.548 204.19C200.013 174.158 156.154 148.668 175.287 115.045C175.46 114.736 175.48 114.265 176.02 114.229C178.9 126.121 183.818 138.147 192.105 147.845C199.659 156.685 209.059 164.333 216.909 172.804C229.805 186.722 233.708 208.537 228.057 225.781C222.753 241.954 203.33 258.551 187.219 266.52C179.337 270.419 170.998 273.098 162.146 274.664L162.152 274.67Z" fill="#0D5B9F"/>
<path d="M153.749 274.676C136.018 269.742 119.726 261.87 107.749 248.913C94.6658 234.759 90.5126 219.632 94.7108 201.451C96.2152 194.933 99.0504 189.395 103.544 184.122C103.808 186.106 103.808 188.204 103.737 190.205C103.197 205.659 106.476 217.727 118.318 229.245C124.973 235.714 132.938 237.837 138.712 245.044C145.739 253.811 150.483 264.325 153.749 274.676Z" fill="#0D5B9F"/>
<!-- כוכב גדול למעלה -->
<path d="M106.141 111.144L108.173 105.3L110.459 111.144L116.3 114.066L110.459 116.456L108.173 122.3L106.141 116.456L100.3 114.066L106.141 111.144Z" fill="#FFFFD7" stroke="#FFFFD7"/>
<!-- כוכב קטן למעלה -->
<path d="M99.6809 126.425L101.205 122.3L102.919 126.425L107.3 128.487L102.919 130.175L101.205 134.3L99.6809 130.175L95.3 128.487L99.6809 126.425Z" fill="#FFFFD7" stroke="#FFFFD7"/>
<!-- כוכב גדול למטה -->
<path d="M245.141 223.144L247.173 217.3L249.459 223.144L255.3 226.066L249.459 228.456L247.173 234.3L245.141 228.456L239.3 226.066L245.141 223.144Z" fill="#FFFFD7" stroke="#FFFFD7"/>
<!-- כוכב קטן למטה -->
<path d="M238.681 238.425L240.205 234.3L241.919 238.425L246.3 240.487L241.919 242.175L240.205 246.3L238.681 242.175L234.3 240.487L238.681 238.425Z" fill="#FFFFD7" stroke="#FFFFD7"/>
<defs>
<filter id="filter0_f_163_4" x="-1.52588e-05" y="-1.52588e-05" width="306.6" height="359.6" filterUnits="userSpaceOnUse" color-interpolation-filters="sRGB">
<feFlood flood-opacity="0" result="BackgroundImageFix"/>
<feBlend mode="normal" in="SourceGraphic" in2="BackgroundImageFix" result="shape"/>
<feGaussianBlur stdDeviation="37.65" result="effect1_foregroundBlur_163_4"/>
</filter>
</defs>
</svg>
